<?xml version="1.0" encoding="utf-8"?>
<!-- Generator: Adobe Illustrator 27.5.0, SVG Export Plug-In . SVG Version: 6.00 Build 0)  -->
<svg version="1.1" xmlns="http://www.w3.org/2000/svg" xmlns:xlink="http://www.w3.org/1999/xlink" x="0px" y="0px"
	 viewBox="0 0 750 500" style="enable-background:new 0 0 750 500;" xml:space="preserve">
<g id="BACKGROUND">
	<path style="fill:#0037D3;" d="M458.002,218.333"/>
	<linearGradient id="SVGID_1_" gradientUnits="userSpaceOnUse" x1="0" y1="250" x2="750" y2="250">
		<stop  offset="0" style="stop-color:#E48694"/>
		<stop  offset="1" style="stop-color:#FED2DF"/>
	</linearGradient>
	<rect style="fill:url(#SVGID_1_);" width="750" height="500"/>
</g>
<g id="OBJECTS">
	<g>
		<defs>
			<rect id="SVGID_00000067954019993055983900000001130516608088114322_" width="750" height="500"/>
		</defs>
		<clipPath id="SVGID_00000034056915220266559650000007625495927597586110_">
			<use xlink:href="#SVGID_00000067954019993055983900000001130516608088114322_"  style="overflow:visible;"/>
		</clipPath>
		<g style="clip-path:url(#SVGID_00000034056915220266559650000007625495927597586110_);">
			<g>
				<g style="enable-background:new    ;">
					<g>
						<polygon style="fill:#E25479;" points="518.13,217.018 620.947,255.471 619.793,287.48 516.977,249.027 						"/>
					</g>
					<g>
						<polygon style="fill:#E25479;" points="548.492,183.715 651.308,222.168 650.155,254.177 547.338,215.725 						"/>
					</g>
					<g>
						<polygon style="fill:#FFA1B5;" points="547.338,215.725 650.155,254.177 620.947,255.471 518.13,217.018 						"/>
					</g>
					<g>
						<polygon style="fill:#FFA1B5;" points="577.7,182.422 680.517,220.875 651.308,222.168 548.492,183.715 						"/>
					</g>
					<g>
						<polygon style="fill:#E25479;" points="578.854,150.413 681.67,188.866 680.517,220.875 577.7,182.422 						"/>
					</g>
					<g>
						<polygon style="fill:#FFA1B5;" points="608.067,149.119 710.884,187.572 681.67,188.866 578.854,150.413 						"/>
					</g>
					<g>
						<polygon style="fill:#E25479;" points="609.221,117.103 712.038,155.556 710.884,187.572 608.067,149.119 						"/>
					</g>
					<g>
						<polygon style="fill:#FFA1B5;" points="638.429,115.81 741.246,154.263 712.038,155.556 609.221,117.103 						"/>
					</g>
					<g>
						<polygon style="fill:#E25479;" points="639.583,83.801 742.399,122.254 741.246,154.263 638.429,115.81 						"/>
					</g>
					<g>
						<polygon style="fill:#E25479;" points="669.944,50.498 772.761,88.951 771.607,120.96 668.791,82.507 						"/>
					</g>
					<g>
						<polygon style="fill:#FFA1B5;" points="668.791,82.507 771.607,120.96 742.399,122.254 639.583,83.801 						"/>
					</g>
					<g>
						<polygon style="fill:#FFA1B5;" points="699.153,49.204 801.969,87.657 772.761,88.951 669.944,50.498 						"/>
					</g>
					<g>
						<polygon style="fill:#E25479;" points="700.306,17.195 803.122,55.648 801.969,87.657 699.153,49.204 						"/>
					</g>
					<g>
						<polygon style="fill:#E25479;" points="730.668,-16.114 833.484,22.339 832.331,54.355 729.514,15.902 						"/>
					</g>
					<g>
						<polygon style="fill:#FFA1B5;" points="729.514,15.902 832.331,54.355 803.122,55.648 700.306,17.195 						"/>
					</g>
					<g>
						<polygon style="fill:#E57089;" points="487.642,216.369 488.922,218.312 490.076,186.303 491.229,154.294 492.383,122.278 
							493.536,90.269 494.69,58.26 495.843,26.251 496.997,-5.765 526.205,-7.058 555.413,-8.352 584.621,-9.646 613.835,-10.939 
							643.043,-12.233 672.251,-13.527 701.46,-14.82 730.668,-16.114 729.514,15.902 700.306,17.195 699.153,49.204 
							669.944,50.498 668.791,82.507 639.583,83.801 638.429,115.81 609.221,117.103 608.067,149.119 578.854,150.413 
							577.7,182.422 548.492,183.715 547.338,215.725 518.13,217.018 518.13,217.018 						"/>
					</g>
				</g>
			</g>
			<g>
				<g style="enable-background:new    ;">
					<g>
						<polygon style="fill:#E57089;" points="486.944,180.502 376.064,217.835 376.163,251.973 487.044,214.64 						"/>
					</g>
					<g>
						<polygon style="fill:#F7B0C0;" points="487.044,214.64 376.163,251.973 407.231,254.382 518.111,217.048 						"/>
					</g>
					<g>
						<polygon style="fill:#E57089;" points="455.777,143.956 344.897,181.289 344.996,215.427 455.877,178.093 						"/>
					</g>
					<g>
						<polygon style="fill:#F7B0C0;" points="455.877,178.093 344.996,215.427 376.064,217.835 486.944,180.502 						"/>
					</g>
					<g>
						<polygon style="fill:#F7B0C0;" points="424.709,141.547 313.829,178.881 344.897,181.289 455.777,143.956 						"/>
					</g>
					<g>
						<polygon style="fill:#E57089;" points="424.61,107.409 313.73,144.743 313.829,178.881 424.709,141.547 						"/>
					</g>
					<g>
						<polygon style="fill:#F7B0C0;" points="393.536,105 282.656,142.334 313.73,144.743 424.61,107.409 						"/>
					</g>
					<g>
						<polygon style="fill:#E57089;" points="393.437,70.856 282.557,108.189 282.656,142.334 393.536,105 						"/>
					</g>
					<g>
						<polygon style="fill:#F7B0C0;" points="362.369,68.447 251.489,105.781 282.557,108.189 393.437,70.856 						"/>
					</g>
					<g>
						<polygon style="fill:#E57089;" points="362.27,34.31 251.39,71.643 251.489,105.781 362.369,68.447 						"/>
					</g>
					<g>
						<polygon style="fill:#E57089;" points="331.103,-2.237 220.223,35.097 220.322,69.234 331.202,31.901 						"/>
					</g>
					<g>
						<polygon style="fill:#F7B0C0;" points="331.202,31.901 220.322,69.234 251.39,71.643 362.27,34.31 						"/>
					</g>
					<g>
						<polygon style="fill:#F7B0C0;" points="300.035,-4.645 189.155,32.688 220.223,35.097 331.103,-2.237 						"/>
					</g>
					<g>
						<polygon style="fill:#E57089;" points="299.936,-38.783 189.056,-1.45 189.155,32.688 300.035,-4.645 						"/>
					</g>
					<g>
						<polygon style="fill:#E57089;" points="268.769,-75.336 157.889,-38.002 157.988,-3.858 268.868,-41.192 						"/>
					</g>
					<g>
						<polygon style="fill:#F7B0C0;" points="268.868,-41.192 157.988,-3.858 189.056,-1.45 299.936,-38.783 						"/>
					</g>
					<g>
						<polygon style="fill:#FFA1B5;" points="518.111,217.048 518.012,182.911 517.913,148.773 517.814,114.635 517.714,80.491 
							517.615,46.353 517.516,12.215 517.416,-21.923 517.317,-56.067 486.249,-58.476 455.181,-60.884 424.114,-63.293 
							393.04,-65.702 361.972,-68.11 330.904,-70.519 299.836,-72.927 268.769,-75.336 268.868,-41.192 299.936,-38.783 
							300.035,-4.645 331.103,-2.237 331.202,31.901 362.27,34.31 362.369,68.447 393.437,70.856 393.536,105 424.61,107.409 
							424.709,141.547 455.777,143.956 455.877,178.093 486.944,180.502 487.044,214.64 						"/>
					</g>
				</g>
			</g>
		</g>
		<g style="clip-path:url(#SVGID_00000034056915220266559650000007625495927597586110_);">
			<g style="enable-background:new    ;">
				<g>
					<polygon style="fill:#E57089;" points="-127.455,152.145 50.611,92.19 50.452,37.367 -127.614,97.322 					"/>
				</g>
				<g>
					<polygon style="fill:#F7B0C0;" points="-127.614,97.322 50.452,37.367 0.559,33.499 -177.507,93.454 					"/>
				</g>
				<g>
					<polygon style="fill:#E57089;" points="-77.402,210.836 100.663,150.881 100.504,96.058 -77.562,156.013 					"/>
				</g>
				<g>
					<polygon style="fill:#F7B0C0;" points="-77.562,156.013 100.504,96.058 50.611,92.19 -127.455,152.145 					"/>
				</g>
				<g>
					<polygon style="fill:#F7B0C0;" points="-27.51,214.704 150.556,154.749 100.663,150.881 -77.402,210.836 					"/>
				</g>
				<g>
					<polygon style="fill:#E57089;" points="-27.35,269.527 150.716,209.572 150.556,154.749 -27.51,214.704 					"/>
				</g>
				<g>
					<polygon style="fill:#F7B0C0;" points="22.552,273.396 200.618,213.441 150.716,209.572 -27.35,269.527 					"/>
				</g>
				<g>
					<polygon style="fill:#E57089;" points="22.712,328.229 200.778,268.274 200.618,213.441 22.552,273.396 					"/>
				</g>
				<g>
					<polygon style="fill:#F7B0C0;" points="72.605,332.098 250.671,272.142 200.778,268.274 22.712,328.229 					"/>
				</g>
				<g>
					<polygon style="fill:#E57089;" points="72.764,386.921 250.83,326.965 250.671,272.142 72.605,332.098 					"/>
				</g>
				<g>
					<polygon style="fill:#E57089;" points="122.816,445.612 300.882,385.656 300.723,330.833 122.657,390.788 					"/>
				</g>
				<g>
					<polygon style="fill:#F7B0C0;" points="122.657,390.788 300.723,330.833 250.83,326.965 72.764,386.921 					"/>
				</g>
				<g>
					<polygon style="fill:#F7B0C0;" points="172.709,449.479 350.775,389.524 300.882,385.656 122.816,445.612 					"/>
				</g>
				<g>
					<polygon style="fill:#E57089;" points="172.869,504.302 350.935,444.347 350.775,389.524 172.709,449.479 					"/>
				</g>
				<g>
					<polygon style="fill:#E57089;" points="222.921,563.004 400.987,503.049 400.828,448.215 222.762,508.17 					"/>
				</g>
				<g>
					<polygon style="fill:#F7B0C0;" points="222.762,508.17 400.828,448.215 350.935,444.347 172.869,504.302 					"/>
				</g>
				<g>
					<polygon style="fill:#FFA1B5;" points="-177.507,93.454 -177.348,148.277 -177.188,203.1 -177.029,257.923 -176.869,312.757 
						-176.71,367.58 -176.55,422.403 -176.391,477.226 -176.231,532.06 -126.338,535.928 -76.446,539.795 -26.553,543.664 
						23.35,547.532 73.243,551.4 123.135,555.268 173.028,559.136 222.921,563.004 222.762,508.17 172.869,504.302 172.709,449.479 
						122.816,445.612 122.657,390.788 72.764,386.921 72.605,332.098 22.712,328.229 22.552,273.396 -27.35,269.527 -27.51,214.704 
						-77.402,210.836 -77.562,156.013 -127.455,152.145 -127.614,97.322 					"/>
				</g>
			</g>
		</g>
		<g style="clip-path:url(#SVGID_00000034056915220266559650000007625495927597586110_);">
			<g style="enable-background:new    ;">
				<g>
					<polygon style="fill:#E25479;" points="796.031,311.029 693.215,272.576 694.368,240.567 797.184,279.02 					"/>
				</g>
				<g>
					<polygon style="fill:#FFA1B5;" points="797.184,279.02 694.368,240.567 723.576,239.273 826.393,277.726 					"/>
				</g>
				<g>
					<polygon style="fill:#E25479;" points="765.669,344.331 662.853,305.879 664.006,273.869 766.823,312.322 					"/>
				</g>
				<g>
					<polygon style="fill:#FFA1B5;" points="766.823,312.322 664.006,273.869 693.215,272.576 796.031,311.029 					"/>
				</g>
				<g>
					<polygon style="fill:#FFA1B5;" points="736.461,345.625 633.645,307.172 662.853,305.879 765.669,344.331 					"/>
				</g>
				<g>
					<polygon style="fill:#E25479;" points="735.308,377.634 632.491,339.181 633.645,307.172 736.461,345.625 					"/>
				</g>
				<g>
					<polygon style="fill:#FFA1B5;" points="706.094,378.928 603.277,340.475 632.491,339.181 735.308,377.634 					"/>
				</g>
				<g>
					<polygon style="fill:#E25479;" points="704.94,410.943 602.124,372.491 603.277,340.475 706.094,378.928 					"/>
				</g>
				<g>
					<polygon style="fill:#FFA1B5;" points="675.732,412.237 572.915,373.784 602.124,372.491 704.94,410.943 					"/>
				</g>
				<g>
					<polygon style="fill:#E25479;" points="674.578,444.246 571.762,405.793 572.915,373.784 675.732,412.237 					"/>
				</g>
				<g>
					<polygon style="fill:#E25479;" points="644.217,477.549 541.4,439.096 542.554,407.087 645.37,445.54 					"/>
				</g>
				<g>
					<polygon style="fill:#FFA1B5;" points="645.37,445.54 542.554,407.087 571.762,405.793 674.578,444.246 					"/>
				</g>
				<g>
					<polygon style="fill:#FFA1B5;" points="615.009,478.842 512.192,440.389 541.4,439.096 644.217,477.549 					"/>
				</g>
				<g>
					<polygon style="fill:#E25479;" points="613.855,510.852 511.039,472.399 512.192,440.389 615.009,478.842 					"/>
				</g>
				<g>
					<polygon style="fill:#E25479;" points="583.493,544.161 480.677,505.708 481.831,473.692 584.647,512.145 					"/>
				</g>
				<g>
					<polygon style="fill:#FFA1B5;" points="584.647,512.145 481.831,473.692 511.039,472.399 613.855,510.852 					"/>
				</g>
				<g>
					<polygon style="fill:#E57089;" points="826.393,277.726 825.239,309.735 824.086,341.744 822.932,373.753 821.779,405.769 
						820.625,437.778 819.472,469.787 818.318,501.796 817.165,533.811 787.956,535.105 758.748,536.399 729.54,537.692 
						700.326,538.986 671.118,540.28 641.91,541.573 612.702,542.867 583.493,544.161 584.647,512.145 613.855,510.852 
						615.009,478.842 644.217,477.549 645.37,445.54 674.578,444.246 675.732,412.237 704.94,410.943 706.094,378.928 
						735.308,377.634 736.461,345.625 765.669,344.331 766.823,312.322 796.031,311.029 797.184,279.02 					"/>
				</g>
			</g>
		</g>
	</g>
</g>
</svg>
